<svg xmlns="http://www.w3.org/2000/svg" width="1200" height="630" viewBox="0 0 1200 630">
  <defs>
    <linearGradient id="fade" x1="0" y1="0" x2="1" y2="0">
      <stop offset="0%" stop-color="#08090b" stop-opacity="1"/>
      <stop offset="42%" stop-color="#08090b" stop-opacity="0.92"/>
      <stop offset="100%" stop-color="#08090b" stop-opacity="0"/>
    </linearGradient>
    <radialGradient id="pool" cx="50%" cy="50%" r="50%">
      <stop offset="0%" stop-color="#3fe08b" stop-opacity="0.16"/>
      <stop offset="100%" stop-color="#3fe08b" stop-opacity="0"/>
    </radialGradient>
    <pattern id="grid" width="56" height="56" patternUnits="userSpaceOnUse">
      <path d="M56 0H0V56" fill="none" stroke="#ffffff" stroke-opacity="0.03" stroke-width="1"/>
    </pattern>
  </defs>

  <rect width="1200" height="630" fill="#08090b"/>
  <rect width="1200" height="630" fill="url(#grid)"/>
  <circle cx="880" cy="300" r="260" fill="url(#pool)"/>

  <!-- the fleet: same topology as the site -->
  <g stroke="#4a5763" stroke-opacity="0.42" stroke-width="1.4">
    <line x1="820" y1="252" x2="960" y2="330"/>
    <line x1="820" y1="252" x2="778" y2="430"/>
    <line x1="820" y1="252" x2="1004" y2="186"/>
    <line x1="960" y1="330" x2="1004" y2="186"/>
    <line x1="960" y1="330" x2="1112" y2="382"/>
    <line x1="960" y1="330" x2="778" y2="430"/>
    <line x1="1004" y1="186" x2="1112" y2="382"/>
    <line x1="778" y1="430" x2="668" y2="352"/>
    <line x1="820" y1="252" x2="668" y2="352"/>
  </g>

  <circle cx="820" cy="252" r="40" fill="none" stroke="#3fe08b" stroke-opacity="0.30" stroke-width="2"/>
  <circle cx="820" cy="252" r="62" fill="none" stroke="#3fe08b" stroke-opacity="0.13" stroke-width="2"/>
  <circle cx="820" cy="252" r="15" fill="#3fe08b"/>
  <circle cx="1004" cy="186" r="11" fill="#8d99a6"/>
  <circle cx="1112" cy="382" r="11.5" fill="#8d99a6"/>
  <circle cx="960" cy="330" r="8" fill="#8d99a6"/>
  <circle cx="778" cy="430" r="9.5" fill="#8d99a6"/>
  <circle cx="668" cy="352" r="10" fill="#8d99a6"/>

  <text x="848" y="248" font-family="JetBrains Mono, DejaVu Sans Mono, monospace" font-size="15" fill="#939ba7" letter-spacing="0.6">home-server</text>
  <text x="848" y="268" font-family="JetBrains Mono, DejaVu Sans Mono, monospace" font-size="13" fill="#5d6672" letter-spacing="0.6">amd64 · always-on</text>
  <text x="1024" y="182" font-family="JetBrains Mono, DejaVu Sans Mono, monospace" font-size="15" fill="#939ba7" letter-spacing="0.6">raspberry pi 5</text>
  <text x="1112" y="414" text-anchor="end" font-family="JetBrains Mono, DejaVu Sans Mono, monospace" font-size="15" fill="#939ba7" letter-spacing="0.6">vps · burst</text>

  <rect width="1200" height="630" fill="url(#fade)"/>

  <!-- mark -->
  <g transform="translate(80,74) scale(1.05)">
    <g stroke="#4a5763" stroke-width="1.1">
      <line x1="9" y1="9" x2="20" y2="17.5"/><line x1="20" y1="17.5" x2="26" y2="6"/>
      <line x1="20" y1="17.5" x2="33" y2="19"/><line x1="9" y1="9" x2="8" y2="26"/>
      <line x1="8" y1="26" x2="24" y2="31"/><line x1="24" y1="31" x2="33" y2="19"/>
      <line x1="26" y1="6" x2="33" y2="19"/><line x1="9" y1="9" x2="26" y2="6"/>
    </g>
    <circle cx="9" cy="9" r="3.1" fill="#3fe08b"/>
    <circle cx="26" cy="6" r="2" fill="#8d99a6"/>
    <circle cx="33" cy="19" r="2.4" fill="#8d99a6"/>
    <circle cx="20" cy="17.5" r="1.6" fill="#8d99a6"/>
    <circle cx="24" cy="31" r="2.2" fill="#8d99a6"/>
    <circle cx="8" cy="26" r="1.9" fill="#8d99a6"/>
  </g>
  <text x="132" y="102" font-family="JetBrains Mono, DejaVu Sans Mono, monospace" font-size="25" fill="#e8ebef" letter-spacing="0.4">fleet<tspan fill="#5d6672">·</tspan>os</text>

  <!-- headline -->
  <text x="80" y="272" font-family="Archivo, DejaVu Sans, sans-serif" font-weight="600" font-size="76" fill="#e8ebef" letter-spacing="-3">Your hardware.</text>
  <text x="80" y="352" font-family="Archivo, DejaVu Sans, sans-serif" font-weight="600" font-size="76" fill="#e8ebef" letter-spacing="-3">Orchestrated</text>
  <text x="80" y="432" font-family="Archivo, DejaVu Sans, sans-serif" font-weight="600" font-size="76" fill="#5d6672" letter-spacing="-3">like a platform.</text>

  <!-- install line -->
  <rect x="80" y="478" width="452" height="46" fill="#0a0c0f" stroke="#1b212a"/>
  <text x="100" y="507" font-family="JetBrains Mono, DejaVu Sans Mono, monospace" font-size="15" fill="#3fe08b">$</text>
  <text x="120" y="507" font-family="JetBrains Mono, DejaVu Sans Mono, monospace" font-size="15" fill="#939ba7">curl -fsSL https://fleetapi.plastikworld.xyz/install | sh</text>

  <!-- footer strip -->
  <line x1="80" y1="566" x2="1120" y2="566" stroke="#1b212a"/>
  <text x="80" y="596" font-family="JetBrains Mono, DejaVu Sans Mono, monospace" font-size="14" fill="#5d6672" letter-spacing="1.4">MULTI-ARCH BUILDS · CONSTRAINT PLACEMENT · ENCRYPTED MESH · AUTOMATIC FAILOVER</text>
  <circle cx="1108" cy="591" r="5" fill="#3fe08b"/>
  <text x="1094" y="596" text-anchor="end" font-family="JetBrains Mono, DejaVu Sans Mono, monospace" font-size="14" fill="#939ba7">fleet.plastikworld.xyz</text>
</svg>
